<svg xmlns="http://www.w3.org/2000/svg" viewBox="0 0 1200 700" role="img" aria-labelledby="title description">
  <title id="title">finally-good-blocker settings</title>
  <desc id="description">A warm off-white settings page with a line drawing, a minimal add-site field, and a compact table of blocked domains.</desc>

  <rect width="1200" height="700" fill="#fffdf8" />

  <g transform="translate(250 84)" fill="none" stroke="#2d2926" stroke-linecap="round" stroke-linejoin="round" stroke-width="1.3">
    <path d="M3 54H86V23L131 8" />
    <circle cx="3" cy="54" r="3" />
    <circle cx="131" cy="8" r="3" />
  </g>

  <g font-family="system-ui, -apple-system, BlinkMacSystemFont, 'Segoe UI', sans-serif" fill="#2d2926">
    <text x="250" y="226" font-size="22" font-weight="650" letter-spacing="-0.4">add a site</text>
    <text x="282" y="274" font-size="16" fill="#aaa197">*.com</text>
    <text x="894" y="274" font-size="16" text-anchor="middle">add</text>
    <line x1="250" y1="288" x2="950" y2="288" stroke="#d9d2c8" stroke-width="1" />

    <text x="250" y="382" font-size="22" font-weight="650" letter-spacing="-0.4">blocked sites</text>
    <line x1="250" y1="399" x2="950" y2="399" stroke="#d9d2c8" stroke-width="1" />

    <g fill="#746d65" font-size="12.5" font-weight="500">
      <text x="282" y="430">site</text>
      <text x="575" y="430" text-anchor="middle">hold</text>
      <text x="680" y="430" text-anchor="middle">base</text>
      <text x="785" y="430" text-anchor="middle">extra</text>
    </g>
    <line x1="250" y1="446" x2="950" y2="446" stroke="#d9d2c8" stroke-width="1" />

    <g font-size="14.5" font-weight="400">
      <text x="282" y="480" fill="#746d65">mail.google.com</text>
      <text x="575" y="480" text-anchor="middle">10</text>
      <text x="680" y="480" text-anchor="middle">30</text>
      <text x="785" y="480" text-anchor="middle">5</text>
      <text x="894" y="480" text-anchor="middle" fill="#9c4238">remove</text>

      <text x="282" y="528" fill="#746d65">outlook.com</text>
      <text x="575" y="528" text-anchor="middle">10</text>
      <text x="680" y="528" text-anchor="middle">30</text>
      <text x="785" y="528" text-anchor="middle">5</text>
      <text x="894" y="528" text-anchor="middle" fill="#9c4238">remove</text>
    </g>

    <line x1="250" y1="496" x2="950" y2="496" stroke="#d9d2c8" stroke-width="1" />
    <line x1="250" y1="544" x2="950" y2="544" stroke="#d9d2c8" stroke-width="1" />
  </g>
</svg>
